<svg xmlns="http://www.w3.org/2000/svg" xmlns:xlink="http://www.w3.org/1999/xlink" width="500" zoomAndPan="magnify" viewBox="0 0 375 374.999991" height="500" preserveAspectRatio="xMidYMid meet" version="1.0"><defs><g/><clipPath id="ea7e4c00f4"><path d="M 89.914062 210.816406 L 182.804688 210.816406 L 182.804688 221.148438 L 89.914062 221.148438 Z M 89.914062 210.816406 " clip-rule="nonzero"/></clipPath><clipPath id="638d8bdf89"><path d="M 194.894531 152.109375 L 287.789062 152.109375 L 287.789062 162.4375 L 194.894531 162.4375 Z M 194.894531 152.109375 " clip-rule="nonzero"/></clipPath></defs><g clip-path="url(#ea7e4c00f4)"><path fill="#222324" d="M 89.914062 210.816406 L 182.800781 210.816406 L 182.800781 221.148438 L 89.914062 221.148438 Z M 89.914062 210.816406 " fill-opacity="1" fill-rule="nonzero"/></g><g clip-path="url(#638d8bdf89)"><path fill="#222324" d="M 194.894531 152.109375 L 287.785156 152.109375 L 287.785156 162.4375 L 194.894531 162.4375 Z M 194.894531 152.109375 " fill-opacity="1" fill-rule="nonzero"/></g><g fill="#222324" fill-opacity="1"><g transform="translate(77.147277, 192.370037)"><g><path d="M 5.03125 0 L 14.515625 0 L 14.515625 -25.3125 L 24.71875 -10.375 L 31.3125 -10.375 L 41.515625 -25.25 L 41.515625 0 L 50.984375 0 L 50.984375 -41.984375 L 42.953125 -41.984375 L 28.078125 -20.21875 L 13.140625 -41.984375 L 5.03125 -41.984375 Z M 5.03125 0 "/></g></g></g><g fill="#222324" fill-opacity="1"><g transform="translate(145.591789, 192.370037)"><g><path d="M 24.953125 0.84375 C 38.09375 0.84375 47.390625 -8.15625 47.390625 -21 C 47.390625 -33.828125 38.09375 -42.828125 24.953125 -42.828125 C 11.8125 -42.828125 2.578125 -33.828125 2.578125 -21 C 2.578125 -8.15625 11.8125 0.84375 24.953125 0.84375 Z M 12.296875 -21 C 12.296875 -28.546875 17.515625 -33.765625 24.953125 -33.765625 C 32.453125 -33.765625 37.609375 -28.546875 37.609375 -21 C 37.609375 -13.4375 32.453125 -8.21875 24.953125 -8.21875 C 17.515625 -8.21875 12.296875 -13.4375 12.296875 -21 Z M 12.296875 -21 "/></g></g></g><g fill="#222324" fill-opacity="1"><g transform="translate(199.89134, 220.874386)"><g><path d="M 5.03125 0 L 14.578125 0 L 14.578125 -13.078125 L 20.875 -13.078125 L 28.375 0 L 39.40625 0 L 30.71875 -14.578125 C 35.75 -16.796875 38.6875 -21.359375 38.6875 -27.53125 C 38.6875 -36.46875 32.578125 -41.984375 22.96875 -41.984375 L 5.03125 -41.984375 Z M 14.453125 -21.109375 L 14.453125 -33.828125 L 21.71875 -33.828125 C 26.390625 -33.828125 29.03125 -31.546875 29.03125 -27.46875 C 29.03125 -23.390625 26.390625 -21.109375 21.71875 -21.109375 Z M 14.453125 -21.109375 "/></g></g></g><g fill="#222324" fill-opacity="1"><g transform="translate(254.539229, 220.874386)"><g><path d="M 5.03125 0 L 33.296875 0 L 33.296875 -8.09375 L 14.515625 -8.09375 L 14.515625 -17.28125 L 31.015625 -17.28125 L 31.015625 -25.25 L 14.515625 -25.25 L 14.515625 -33.953125 L 32.625 -33.953125 L 32.625 -41.984375 L 5.03125 -41.984375 Z M 5.03125 0 "/></g></g></g></svg>