<svg xmlns="http://www.w3.org/2000/svg" xmlns:xlink="http://www.w3.org/1999/xlink" width="500" zoomAndPan="magnify" viewBox="0 0 375 374.999991" height="500" preserveAspectRatio="xMidYMid meet" version="1.0"><defs><g/></defs><g fill="#f4f4f4" fill-opacity="1"><g transform="translate(79.088693, 187.57487)"><g><path d="M 16.59375 0 L 16.59375 -0.25 C 5.5 -4.296875 7.296875 -25 8.546875 -33.953125 C 9.546875 -41.09375 9.546875 -41.046875 10.546875 -48 C 12.34375 -46.546875 12.65625 -44.09375 13.203125 -40.09375 C 13.75 -35.203125 14.15625 -32.046875 14.953125 -26.453125 C 15.90625 -20.84375 16.796875 -0.703125 27.84375 -0.703125 C 33 -0.703125 33.546875 -4.453125 33.546875 -6.703125 C 33.546875 -13.953125 28.796875 -30.953125 28.796875 -38.59375 C 28.796875 -42.203125 29.40625 -47.296875 33.09375 -47.296875 C 36.546875 -47.296875 36.5 -41.796875 37.09375 -37.40625 C 39.046875 -23.15625 40.25 -14.59375 42.25 0 L 49.75 0 C 47.75 -14.59375 46.703125 -23.09375 44.59375 -37.453125 C 43.703125 -43.65625 43.453125 -50.5 36.796875 -50.5 C 31.046875 -50.5 27.59375 -46.09375 27.90625 -38.546875 C 28.203125 -31.40625 30.34375 -22.453125 31.09375 -17.75 C 32.25 -10.40625 33.84375 -4.203125 29.84375 -4.203125 C 26.796875 -4.203125 24.703125 -11.40625 23.90625 -16.546875 C 22.296875 -27 21.5 -33.5 19.84375 -45.09375 C 19.40625 -48.25 17.75 -50 15.40625 -50 L 4.59375 -50 L 4.59375 -49.75 C 5.59375 -49.65625 6.453125 -49.546875 7.203125 -49.40625 C 10.703125 -48.15625 9.296875 -44.59375 8.796875 -41.59375 L 1 0 Z M 16.59375 0 "/></g></g></g><g fill="#f4f4f4" fill-opacity="1"><g transform="translate(129.830831, 187.57487)"><g><path d="M 21.75 0.5 C 33.59375 0.5 41.5 -9.703125 41.5 -25 C 41.5 -40.296875 33.59375 -50.5 21.75 -50.5 C 9.84375 -50.5 2 -40.296875 2 -25 C 2 -9.703125 9.84375 0.5 21.75 0.5 Z M 9.796875 -25.046875 C 9.796875 -39.90625 14.546875 -49.796875 21.703125 -49.796875 C 28.90625 -49.796875 33.703125 -39.90625 33.703125 -25.046875 C 33.703125 -10.15625 28.90625 -0.25 21.703125 -0.25 C 14.546875 -0.25 9.796875 -10.15625 9.796875 -25.046875 Z M 9.796875 -25.046875 "/></g></g></g><g fill="#f4f4f4" fill-opacity="1"><g transform="translate(173.324099, 187.57487)"><g><path d="M 10.75 0 L 10.75 -49.25 L 21.453125 -49.25 C 27.34375 -49.25 29.703125 -45.65625 29.703125 -40.953125 C 29.703125 -27.84375 14.59375 -27.25 14.59375 -22.40625 C 14.59375 -19.203125 21 -9.296875 25.203125 -3.796875 C 27.796875 -0.40625 27.953125 0 30.90625 0 L 39.15625 0 L 39.15625 -0.296875 C 35.546875 -0.296875 20.40625 -22.34375 20.40625 -25.796875 C 20.40625 -28.84375 36.953125 -29.34375 36.953125 -41.40625 C 36.953125 -45.5 34.296875 -50 28.84375 -50 L 3.5 -50 L 3.5 0 Z M 10.75 0 "/></g></g></g><g fill="#f4f4f4" fill-opacity="1"><g transform="translate(212.46804, 187.57487)"><g><path d="M 2 -16.796875 C 2 -4.046875 13.09375 0.5 25.15625 0.5 C 28.546875 0.5 31.09375 0 33.75 -1.25 L 36.75 -9.953125 C 33.34375 -7.09375 29.15625 -6.75 24.953125 -6.75 C 13.75 -6.75 2.90625 -9.046875 2.90625 -16.40625 C 2.90625 -19 4.84375 -20.546875 9.34375 -20.546875 C 15.90625 -20.546875 20.953125 -15.75 28.34375 -16 C 31.84375 -16.09375 35 -18.453125 35 -22.203125 C 35 -32.15625 8.84375 -28.703125 8.84375 -38.203125 C 8.84375 -41.703125 11.953125 -43.453125 19.25 -43.453125 C 25.65625 -43.453125 32.296875 -41.75 35.203125 -39.65625 L 37.25 -47.15625 C 34.15625 -49.65625 25.546875 -50.5 20.40625 -50.5 C 6 -50.5 3.203125 -43.703125 3.203125 -40.65625 C 3.203125 -33.25 10.40625 -31.90625 17.453125 -30.203125 C 22.796875 -28.90625 31.34375 -27.34375 31.34375 -24.40625 C 31.34375 -23.25 30.296875 -22.796875 29.15625 -22.796875 C 24.5 -22.796875 20.703125 -26.296875 14.046875 -26.296875 C 7.25 -26.296875 2 -23.15625 2 -16.796875 Z M 2 -16.796875 "/></g></g></g></svg>